HIERARCHY
ROOT Hips
{
    OFFSET 0 0 0
    CHANNELS 6 Xposition Yposition Zposition Zrotation Xrotation Yrotation 
    JOINT LeftHip
    {
        OFFSET 3.3 0 0
        CHANNELS 3 Zrotation Xrotation Yrotation 
        JOINT LeftKnee
        {
            OFFSET 0 -17.8 0
            CHANNELS 1 Xrotation 
            End Site
            {
                OFFSET 0 -16.03 0
            }
        }
    }
    JOINT RightHip
    {
        OFFSET -3.3 0 0
        CHANNELS 3 Zrotation Xrotation Yrotation 
        JOINT RightKnee
        {
            OFFSET 0 -17.7 0
            CHANNELS 1 Xrotation 
            End Site
            {
                OFFSET 0 -16.1 0
            }
        }
    }
    JOINT Chest
    {
        OFFSET 0 4.41 0
        CHANNELS 3 Zrotation Xrotation Yrotation 
        JOINT Neck
        {
            OFFSET 0 16.76 0
            CHANNELS 2 Zrotation Xrotation 
            JOINT Head
            {
                OFFSET 0 4.4 0
                CHANNELS 3 Zrotation Xrotation Yrotation 
                End Site
                {
                    OFFSET 0 3.31 0
                }
            }
        }
        JOINT LeftCollar
        {
            OFFSET 1.01 14.58 1.68
            CHANNELS 2 Zrotation Yrotation 
            JOINT LeftShoulder
            {
                OFFSET 5.89 0 0
                CHANNELS 3 Zrotation Xrotation Yrotation 
                JOINT LeftElbow
                {
                    OFFSET 0 -11.63 0
                    CHANNELS 1 Xrotation 
                    End Site
                    {
                        OFFSET 0 -9.24 0
                    }
                }
            }
        }
        JOINT RightCollar
        {
            OFFSET -1.01 14.58 1.68
            CHANNELS 2 Zrotation Yrotation 
            JOINT RightShoulder
            {
                OFFSET -6.39 0 0
                CHANNELS 3 Zrotation Xrotation Yrotation 
                JOINT RightElbow
                {
                    OFFSET 0 -11.08 0
                    CHANNELS 1 Xrotation 
                    End Site
                    {
                        OFFSET 0 -9.13 0
                    }
                }
            }
        }
    }
}
MOTION
Frames:  21
Frame Time: 0.033333
2.77238	27.5605	110.43	-6.16759	-6.25988	-4.97378	5.58932	-21.8996	-6.45536	3.95382	4.5189	20.7677	1.25258	24.4419	2.9341	3.61083	10.8529	4.67116	40.5498	-5.88991	-32.1012	0	-18.3846	26.3303	40.499	12.3094	-67.6306	-24.7203	21.7246	-21.6252	-39.556	-29.8207	29.7771	-44.2854	
2.89936	28.1369	111.934	-5.05204	-6.74077	-3.55706	3.41271	-19.8938	-4.42768	7.7708	3.28317	19.2928	0.532368	28.4042	1.29135	3.7259	10.8526	5.41556	40.1535	-6.07393	-31.9768	0	-17.5406	26.1819	40.8674	13.7975	-64.8521	-24.0513	21.8016	-21.8582	-39.2985	-27.7796	29.4887	-45.6561	
3.03323	28.6003	113.47	-3.68958	-7.00443	-2.32156	1.31978	-17.6585	-3.18235	10.8286	1.79931	16.9421	-0.626733	34.3509	-0.414411	3.71596	10.5344	5.41069	39.7284	-6.13387	-31.8554	0	-16.8276	26.1773	40.7007	13.5651	-61.7979	-23.3353	21.6131	-22.0348	-38.7645	-24.9032	29.8258	-46.0348	
3.17956	28.9836	114.97	-2.44802	-6.70628	-1.47463	-0.459751	-15.2221	-2.91271	12.251	0.370666	12.6433	-1.66331	41.2752	-1.81947	3.22922	10.0025	4.85716	39.4431	-6.21131	-31.9512	0	-16.3659	26.2121	39.9968	11.9192	-59.629	-22.463	21.292	-22.1865	-38.0804	-21.9645	30.9033	-45.4867	
3.32863	29.3098	116.377	-1.63847	-5.82577	-1.10339	-1.68421	-12.7315	-3.13884	11.9857	-0.693049	6.27352	-1.99613	48.5713	-2.54591	2.3001	9.17753	4.10873	39.4098	-6.44802	-32.4384	0	-16.3412	26.0856	38.6036	9.12053	-55.6568	-21.2777	21.0332	-22.3279	-37.6848	-19.3615	32.7544	-44.1611	
3.45596	29.5802	117.719	-1.30687	-5.11548	-0.698397	-2.35543	-9.85017	-3.45374	10.9024	-1.20635	-0.797091	-1.90828	54.6594	-2.70886	1.79855	7.8635	3.3097	39.4146	-6.73042	-33.1004	0	-16.5523	25.7733	36.6589	5.28089	-51.2463	-20.1368	20.8072	-22.4153	-37.569	-17.0419	35.1616	-42.3428	
3.56483	29.7898	119.028	-1.38393	-5.06505	-0.0803886	-2.53038	-6.39211	-3.47043	9.75884	-1.07663	-7.0059	-1.86761	57.8431	-2.4053	2.19761	6.27452	2.58455	39.1996	-6.91548	-33.622	0	-16.5555	25.2753	34.4551	0.732511	-49.3355	-19.5066	20.4656	-22.4078	-37.5338	-14.697	37.5714	-40.3108	
3.64422	29.9456	120.35	-1.76474	-5.60236	0.630016	-2.23125	-2.35613	-2.91206	8.63495	-0.519566	-11.8826	-1.9243	57.569	-1.78137	3.22006	4.62822	2.27493	38.7553	-7.09722	-33.7564	0	-16.3801	24.8194	32.437	-4.41497	-49.5968	-19.615	20.1505	-22.3778	-37.6256	-12.1254	39.5625	-38.0778	
3.70975	30.0457	121.7	-2.30511	-6.38092	1.54864	-1.55421	2.06428	-0.935373	7.25677	0.129835	-15.3692	-2.04984	53.7188	-0.999838	4.32976	2.8269	2.73498	38.2701	-7.43259	-33.4806	0	-16.1736	24.5815	30.7927	-10.0444	-50.0256	-20.5354	20.0697	-22.2896	-38.102	-9.22424	41.1247	-35.6098	
3.74683	30.0689	123.075	-2.64475	-6.98384	3.05317	-0.786476	6.21824	2.33013	6.06372	0.427184	-17.7542	-2.55523	46.46	-0.533169	5.06861	0.801184	3.96433	38.5402	-7.98018	-33.8963	0	-15.7159	24.2544	29.3237	-15.6663	-48.6828	-21.8477	20.4601	-22.2433	-38.9965	-5.9837	41.9905	-33.0238	
3.76172	29.9971	124.453	-2.47566	-7.02214	5.23305	-0.218949	9.35728	5.55094	5.75394	-0.014211	-19.4025	-3.69032	36.3304	-0.76743	5.16087	-1.3881	5.81187	40.3648	-8.76312	-36.2355	0	-15.1438	23.7538	28.0022	-21.0702	-45.9336	-23.0925	21.3993	-22.489	-40.1919	-2.69894	42.0947	-30.4835	
3.75449	29.833	125.837	-1.96632	-6.51634	7.68053	0.213726	11.4758	6.22463	6.49113	-0.933886	-20.3641	-4.4784	25.3769	-1.51882	4.69592	-3.43535	7.96619	42.9158	-9.77566	-39.7382	0	-14.6131	23.0599	26.9091	-26.1887	-43.6476	-24.6342	22.5805	-22.9354	-41.3898	0.610497	41.4181	-27.89	
3.72579	29.5739	127.242	-1.38413	-6.02104	9.88905	0.641813	13.1527	3.74885	8.346	-1.83181	-20.6151	-3.7116	16.1665	-2.34835	4.42884	-5.05808	10.0467	44.8769	-10.9759	-42.9664	0	-14.2373	22.4807	26.1205	-30.902	-41.9898	-27.1115	23.7029	-23.2238	-42.2333	3.94701	39.7423	-25.0989	
3.70914	29.1988	128.697	-0.886457	-5.78002	11.7295	1.0571	14.7694	-0.540548	11.2393	-2.40756	-20.5511	-1.56095	9.99157	-2.90954	4.5449	-6.12987	11.6259	46.0128	-12.1113	-45.2828	0	-14.0324	22.1749	25.4516	-34.7625	-40.6483	-30.6385	24.4712	-23.3619	-42.6066	7.11951	37.1118	-22.23	
3.72219	28.6627	130.279	-0.575033	-5.5178	13.2544	1.49998	16.4585	-4.90235	14.7787	-2.60939	-20.8115	2.4464	6.05821	-2.86738	4.52574	-6.57184	12.3085	46.5418	-12.8536	-46.4353	0	-14.1767	22.0818	25.1455	-37.2291	-39.5857	-35.0253	24.8589	-23.5881	-42.7856	9.79548	33.621	-19.5486	
3.82835	25.7757	135.571	2.06994	-4.77667	15.227	1.92806	25.1199	-8.31436	24.2507	-6.55619	-28.2587	4.86434	0.194697	-2.051	4.26879	-6.59269	12.141	46.4065	-13.0278	-46.3766	0	-14.5468	22.2445	25.1174	-38.1521	-38.8392	-39.5062	24.8395	-23.8192	-42.9833	11.7382	30.4759	-17.5326	
3.95683	28.1799	140.162	3.70055	-5.25993	12.975	-0.853328	14.5512	-7.14493	31.5238	-4.34737	-19.9375	-0.635122	7.59212	-0.563239	3.83438	-6.52622	11.4037	45.4474	-12.5509	-45.1829	0	-14.9649	22.6916	25.4875	-37.4472	-37.7702	-43.1588	24.3128	-23.7076	-43.1712	13.0699	28.951	-16.7013	
3.94244	28.6213	141.747	2.42084	-5.64932	11.7138	0.695773	11.3642	-4.72188	38.2504	-2.07061	-18.1024	-2.30363	11.3143	1.14783	3.67972	-6.49394	10.5234	43.8421	-11.4875	-43.1487	0	-15.1726	23.1261	25.8807	-35.4034	-35.6068	-46.2681	23.5294	-23.4223	-43.2099	13.5114	29.2172	-16.9829	
3.91758	28.9572	143.289	1.23649	-5.94136	10.9604	2.21088	7.46114	-2.99886	45.404	-0.101345	-15.8421	-2.92097	13.9477	2.49946	3.70236	-6.43839	9.97021	41.965	-10.0062	-40.7176	0	-15.117	23.4641	26.1116	-32.7095	-33.332	-49.654	22.8572	-23.2458	-43.033	12.7547	30.2963	-17.9842	
3.8881	29.2362	144.746	0.450677	-6.06515	10.6026	3.1401	2.42041	-2.36181	52.3058	1.37792	-13.0128	-3.0447	14.8839	3.27464	3.90958	-6.09907	9.83665	40.3177	-8.51915	-38.653	0	-15.0154	23.7316	26.1713	-29.9167	-32.5412	-52.7902	22.5511	-23.1655	-42.6278	10.8454	31.3644	-19.348	
3.86587	29.4779	146.124	0.192121	-6.28163	10.3487	3.21008	-3.21902	-2.22346	57.821	2.32661	-9.50426	-2.96982	14.4067	3.43644	4.45678	-5.28149	9.99373	39.4453	-7.56456	-37.8309	0	-14.9566	24.0773	26.1759	-27.2978	-33.2817	-54.4051	22.4555	-22.9862	-41.758	8.14262	31.6059	-20.7531	
